<?xml version="1.0" encoding="utf-8"?>
<!-- Generator: Adobe Illustrator 21.0.0, SVG Export Plug-In . SVG Version: 6.00 Build 0)  -->
<svg version="1.1" id="Layer_1" xmlns="http://www.w3.org/2000/svg" xmlns:xlink="http://www.w3.org/1999/xlink" x="0px" y="0px"
	 viewBox="0 0 141.3 38" style="enable-background:new 0 0 141.3 38;" xml:space="preserve">
<style type="text/css">
	.st0{fill:#000;}
</style>
<g>
	<path class="st0" d="M45.5,6.3c0-1.8-1.2-3.2-3.2-3.9c-1-0.4-2.2-0.6-3.5-0.6c-1.6,0-3,0.3-4.3,0.9c0,0,0,0,0,0
		c0.1,0.1,0.2,0.2,0.2,0.4c0,0.3-0.1,0.8-0.3,1.3l-0.7,2c0,0.2-0.1,0.3-0.1,0.5l-7.8,24c-0.1,0.3-0.1,0.5-0.1,0.8
		c0,1.8,1.2,3.2,3.2,3.9c1,0.4,2.2,0.6,3.5,0.6c1.6,0,3-0.3,4.3-0.9c0,0,0,0,0,0c-0.1-0.1-0.2-0.2-0.2-0.4c0-0.3,0.1-0.8,0.3-1.3
		l0.7-2c0-0.2,0.1-0.3,0.1-0.5l7.8-24C45.5,6.7,45.5,6.5,45.5,6.3z"/>
	<path class="st0" d="M51,14.6c-1.8,0-3.2,0.5-5.3,1.7c-0.3,0.2-0.7,0.4-1,0.6c0.3,0,0.6,0.4,0.6,0.7c0,0.2-0.1,0.4-0.2,0.9
		l-0.7,2.2c0,0.1,0,0.1-0.1,0.2l-3,9.3c-0.2,0.6-0.3,1-0.3,1.5c0,2.7,2.6,4.5,6.7,4.5c1.6,0,3-0.3,4.3-0.9C52,35,52,34.9,52,34.7
		c0-0.2,0.1-0.5,0.2-0.8l0.2-0.8l0.8-2.5l0-0.1l3-9.3c0.4-1.1,0.5-1.8,0.5-2.5C56.6,16.2,54.3,14.6,51,14.6z"/>
	<path class="st0" d="M71.8,18.7c0-2.5-2.3-4.2-5.6-4.2c-1.8,0-3.2,0.5-5.3,1.7c-0.3,0.2-0.7,0.4-1,0.6c0.3,0,0.6,0.4,0.6,0.7
		c0,0.2-0.1,0.4-0.2,0.9l-0.7,2.2c0,0.1,0,0.1-0.1,0.2l-3,9.3c-0.2,0.6-0.3,1-0.3,1.5c0,2.7,2.6,4.5,6.7,4.5c1.6,0,3-0.3,4.3-0.9
		c-0.1-0.1-0.2-0.3-0.2-0.4c0-0.2,0.1-0.5,0.2-0.8l0.2-0.8l0.8-2.5l0-0.1l3-9.3C71.7,20.1,71.8,19.4,71.8,18.7z"/>
	<path class="st0" d="M68.9,10.5c3.7,0,7.2-2.2,7.2-4.6c0-2.2-2.2-3.7-5.5-3.7c-3.8,0-7.2,2.2-7.2,4.7C63.4,9,65.7,10.5,68.9,10.5z"
		/>
	<path class="st0" d="M16.5,14.6c-8.7,0-15.3,5.1-15.3,12c0,4.7,4.4,8.6,10.2,9.4c-0.2-0.3-0.4-0.6-0.4-1c0-0.4,0.1-0.9,0.4-1.7
		l0.6-1.8c0-0.1,0.1-0.3,0.1-0.5l4-12c0.2-0.6,0.4-1.1,0.7-1.5c0.8-1.3,2.1-2.2,3.7-2.4C19.3,14.7,18,14.6,16.5,14.6z"/>
	<path class="st0" d="M22.3,16.6c-3.2,0-4.4,3.1-4.4,4.4c0,1.8,1.1,3.4,2.6,4.1c0.6,0.3,1.3,0.5,2,0.5c2.4,0,4.5-2,4.5-4.5
		C26.9,20.2,26.6,16.6,22.3,16.6z"/>
	<path class="st0" d="M90.9,6.3c0-1.8-1.2-3.2-3.2-3.9c-1-0.4-2.2-0.6-3.5-0.6c-1.6,0-3,0.3-4.3,0.9c0,0,0,0,0,0
		c0.1,0.1,0.2,0.2,0.2,0.4c0,0.3-0.1,0.8-0.3,1.3l-0.7,2c0,0.2-0.1,0.3-0.1,0.5l-7.8,24c-0.1,0.3-0.1,0.5-0.1,0.8
		c0,1.8,1.2,3.2,3.2,3.9c1,0.4,2.2,0.6,3.5,0.6c1.6,0,3-0.3,4.3-0.9c0,0,0,0,0,0C82,35.1,82,34.9,82,34.8c0-0.3,0.1-0.8,0.3-1.3
		l0.7-2c0-0.2,0.1-0.3,0.1-0.5l7.8-24C90.9,6.7,90.9,6.5,90.9,6.3z"/>
	<path class="st0" d="M101.8,18.7c0.4-1,1.4-3.8,1.8-4.2c-9.3,0-16.3,5.2-16.3,11.9c0,4.9,3.6,8.4,9.2,9.4c0-0.5,0.1-1.2,0.4-2
		l3.7-11.3L101.8,18.7z M101.7,19C101.6,19,101.6,19,101.7,19C101.6,19.1,101.6,19,101.7,19z"/>
	<path class="st0" d="M106.6,14.7c0.2,0.3,0.4,0.6,0.4,1c0,0.5-0.1,1.2-0.4,2l-2.9,8.8l-1.9,5.9l-0.6,1.9c-0.2,0.7-0.4,1.2-0.6,1.6
		c9.2-0.3,16.1-5.6,16.1-12.6C116.5,18.9,112.5,15.6,106.6,14.7z"/>
	<path class="st0" d="M136.7,16.3c-3-0.2-3.5,1.8-3.5,3.2c0,1.8,1.4,3.1,3.3,3.1c1.8,0,3-1.3,3-3.1
		C139.4,18.4,138.6,16.4,136.7,16.3z"/>
	<path class="st0" d="M119.4,26.8c-2,0-3.5,1.4-3.5,3.3c0,0.3,0.1,0.6,0.2,1c0.6,1.4,2,2.3,3.6,2.3c0.3,0,0.5,0,0.8-0.1
		c0.4-0.1,0.8-0.2,1.1-0.4c0,0,0,0,0.1,0c0.1-0.1,0.2-0.2,0.4-0.2c0,0,0.1,0,0.1-0.1c0.7-0.6,1-1.3,1-2.3
		C123.2,28.3,121.6,26.8,119.4,26.8z"/>
	<path class="st0" d="M132.8,22.4c-0.5-0.3-1.5-1.1-2.6-1.9c-1.7-1.2-4.8-3.4-4.8-3.4c-0.7-0.5-1-0.9-1.2-1.2
		c-2.8,1.3-4.6,3.6-4.6,6.2c0,1.4,0.3,2.2,1.9,3.7c0.4,0.4,0.9,0.8,1.6,1.4c0.1,0.1,0.3,0.2,0.4,0.4l2.2,1.8
		c0.4,0.3,0.7,0.5,0.9,0.8l0.6,0.5c0.5,0.4,0.8,0.7,1.2,1l0,0c2.2,1.8,2.7,2.4,2.7,3.3c0,0.2,0,0.4-0.1,0.5c3.7-1.1,6.3-3.6,6.3-6.7
		c0-0.6-0.2-1.3-0.4-1.9C136.3,25.4,135.4,24.2,132.8,22.4z"/>
</g>
</svg>
